<?xml version="1.0" encoding="utf-8"?>
<!-- Generator: Adobe Illustrator 21.0.0, SVG Export Plug-In . SVG Version: 6.00 Build 0)  -->
<svg version="1.1" id="Layer_1" xmlns="http://www.w3.org/2000/svg" xmlns:xlink="http://www.w3.org/1999/xlink" x="0px" y="0px"
	 viewBox="0 0 1920 265" style="enable-background:new 0 0 1920 265;" xml:space="preserve">
<style type="text/css">
	.st0{fill:#FFFFFF;}
</style>
<g transform="translate(0.000000,234.000000) scale(0.100000,-0.100000)">
	<path class="st0" d="M7904,2312.7c-241-71.3-448-216.3-723-509.6c-132-140.4-215-199.3-280-199.3c-56,0-127,44.2-240,148.3
		c-189,174.4-226,205-301,245.7l-75,41.9h-145c-133,0-151-2.3-219-30.6c-88-36.2-204-113.2-298-199.3c-95-86.1-128-108.7-210-141.6
		c-282-115.5-644-89.5-999,71.3c-149,66.8-213,78.1-301,52.1c-99-28.3-169-74.7-375-250.3c-265-225.4-351-274.1-538-305.8
		c-174-30.6-338-14.7-524,49.8c-129,45.3-245,48.7-321,7.9c-52-27.2-122-104.2-150-164.2c-22-48.7-83-96.3-163-128
		c-60-23.8-85-26-237-26c-156,1.1-184,4.5-347,43c-154,36.2-196,41.9-311,41.9c-212,0-388-43-602-147.2C381,833.8,217,725,46,582.4
		L1,545L0,118.1V-310h9600h9600v594.5v594.5l-107,122.3c-193,219.7-371,335.2-591,382.8c-99,21.5-336,20.4-448-1.1
		c-176-35.1-417-145-604-276.3c-47-32.8-148-109.8-225-171c-209-165.3-289-203.8-421-203.8c-97,0-199,35.1-474,160.8
		c-426,194.8-539,235.5-775,276.3c-165,28.3-523,28.3-725,0c-96-13.6-170-18.1-220-12.5c-260,24.9-518,163.1-670,357.9
		c-303,388.4-410,457.5-705,455.2c-278-1.1-405-62.3-677-326.1c-161-156.3-242-217.4-347-259.3c-77-30.6-98-34-196-32.8
		c-264,2.3-555,155.1-992,522.1c-152,126.8-225,173.3-342,217.4c-166,63.4-358,58.9-540-12.5c-47-19.3-185-89.5-306-158.5
		c-326-183.5-424-214-568-175.5c-130,35.1-195,77-580,379.4c-122,96.3-247,166.5-345,194.8C8230,2350.1,8026,2347.8,7904,2312.7z"/>
</g>
</svg>
